<svg xmlns="http://www.w3.org/2000/svg" width="19.375" height="19.375" viewBox="0 0 19.375 19.375">
  <path id="Path_19578" data-name="Path 19578" d="M19.688-7.5A9.687,9.687,0,0,0,10-17.187,9.687,9.687,0,0,0,.313-7.5,9.687,9.687,0,0,0,10,2.188,9.687,9.687,0,0,0,19.688-7.5ZM8.879-2.371a.625.625,0,0,1-.884,0L3.933-6.433a.625.625,0,0,1,0-.884L4.817-8.2a.625.625,0,0,1,.884,0L8.438-5.464,14.3-11.326a.625.625,0,0,1,.884,0l.884.884a.625.625,0,0,1,0,.884Z" transform="translate(-0.313 17.188)" fill="#fff"/>
</svg>
