<?xml version="1.0" encoding="UTF-8"?>
<svg xmlns="http://www.w3.org/2000/svg" xmlns:xlink="http://www.w3.org/1999/xlink" viewBox="0 0 50 50" width="20px" height="20px">
<g id="surface53143">
<path style=" stroke:none;fill-rule:nonzero;fill:rgb(89.411765%,0%,10.980392%);fill-opacity:1;" d="M 25 2 C 12.328125 2 2 12.328125 2 25 C 2 37.671875 12.328125 48 25 48 C 37.671875 48 48 37.671875 48 25 C 48 12.328125 37.671875 2 25 2 Z M 25 4 C 36.589844 4 46 13.410156 46 25 C 46 36.589844 36.589844 46 25 46 C 13.410156 46 4 36.589844 4 25 C 4 13.410156 13.410156 4 25 4 Z M 25 6 C 20.523438 6 16.402344 7.570312 13.152344 10.167969 L 12.28125 10.867188 L 39.132812 37.71875 L 39.832031 36.847656 C 42.429688 33.597656 44 29.476562 44 25 C 44 14.53125 35.46875 6 25 6 Z M 25 8 C 34.382812 8 42 15.617188 42 25 C 42 28.597656 40.75 31.84375 38.832031 34.589844 L 15.40625 11.164062 C 18.15625 9.25 21.402344 8 25 8 Z M 10.867188 12.28125 L 10.167969 13.152344 C 7.570312 16.402344 6 20.523438 6 25 C 6 35.46875 14.53125 44 25 44 C 29.476562 44 33.597656 42.429688 36.847656 39.832031 L 37.71875 39.132812 Z M 11.167969 15.410156 L 34.59375 38.835938 C 31.84375 40.75 28.597656 42 25 42 C 15.617188 42 8 34.382812 8 25 C 8 21.402344 9.25 18.15625 11.167969 15.410156 Z M 11.167969 15.410156 "/>
</g>
</svg>
